<?xml version="1.0" encoding="UTF-8"?>
<svg width="24px" height="28px" viewBox="0 0 24 28" version="1.1" xmlns="http://www.w3.org/2000/svg" xmlns:xlink="http://www.w3.org/1999/xlink">
    <!-- Generator: Sketch 51.1 (57501) - http://www.bohemiancoding.com/sketch -->
    <title>位置 copy 2</title>
    <desc>Created with Sketch.</desc>
    <defs></defs>
    <g id="03我的闲置" stroke="none" stroke-width="1" fill="none" fill-rule="evenodd">
        <g id="位置-copy-2" fill-rule="nonzero">
            <path d="M11.996764,26.8254312 C11.7742322,26.8254312 11.562367,26.7533357 11.3841498,26.616952 C9.34624719,25.0577198 4.43158052,21.1790811 2.81225468,18.8439686 C1.46852434,16.9061741 0.758262172,14.6227545 0.758262172,12.2406152 C0.758262172,10.6938564 1.0552809,9.19378873 1.64107865,7.7821021 C2.20701124,6.41823514 3.01734831,5.1931916 4.04955805,4.1410674 C5.0816779,3.0890042 6.28335581,2.26307801 7.62121348,1.68631425 C9.0058427,1.08936133 10.4771236,0.786676243 11.9941573,0.786676243 C14.9994607,0.786676243 17.8207041,1.97320177 19.9381573,4.12770961 C22.0559101,6.28252243 23.2250487,9.1565821 23.2301723,12.2204566 C23.2340075,14.4831381 22.5917903,16.6720469 21.3730037,18.5506157 C19.7723745,21.0175067 14.7092434,25.0145662 12.6066816,26.6185684 C12.4292434,26.7538541 12.2183371,26.8254312 11.996764,26.8254312 Z" id="Shape"></path>
            <path d="M16.0788315,2.3846705 C17.3265318,2.92044597 18.4468015,3.68830541 19.4085693,4.66690077 C20.3704869,5.64564862 21.1259026,6.78642829 21.6538727,8.05758365 C22.2003596,9.37332597 22.4786816,10.7743386 22.4810787,12.221768 C22.4846742,14.3341286 21.8853333,16.3773215 20.7479251,18.1303943 C19.6822772,19.7727315 16.4708614,22.7177887 12.1574831,26.0084102 C12.1111785,26.0439326 12.0547476,26.0631 11.996764,26.0630002 C11.9380575,26.0630614 11.8809458,26.0435559 11.8341573,26.0074648 C10.6956704,25.1364027 8.99352809,23.7988548 7.34981273,22.3733834 C4.91724345,20.2638285 3.87235955,19.0506179 3.42420974,18.4043814 C2.1701573,16.5958648 1.50729588,14.4644738 1.50729588,12.2406152 C1.50729588,10.7963271 1.78444944,9.39604641 2.33108614,8.07871823 C2.85932584,6.80570254 3.61582022,5.66211713 4.57956554,4.67977061 C5.54316105,3.69757657 6.66480899,2.92660641 7.91331835,2.38833017 C9.20506367,1.83142011 10.5780375,1.54907669 11.9941573,1.54907669 C13.4133633,1.54907669 14.7876554,1.83020022 16.0788315,2.3846705 Z" id="Shape" stroke="#CCCCCC" stroke-width="2.5"></path>
            <path d="M12.0253433,8.36796398 C13.9582515,8.36796398 15.5252884,9.96292791 15.5252884,11.9304039 C15.5252884,13.8979172 13.9582515,15.4928811 12.0253433,15.4928811 C10.0923253,15.4928811 8.52528839,13.8979172 8.52528839,11.9304039 C8.52530668,9.96294654 10.0923436,8.36796398 12.0253433,8.36796398 Z" id="Shape" fill="#CCCCCC"></path>
        </g>
    </g>
</svg>